<svg id="Group_48349" data-name="Group 48349" xmlns="http://www.w3.org/2000/svg" width="19.948" height="25.647" viewBox="0 0 19.948 25.647">
  <path id="Path_37766" data-name="Path 37766" d="M12.7,13.925h0Z" transform="translate(-1.928 0.523)" fill="#fd8f06" fill-rule="evenodd"/>
  <path id="Path_37767" data-name="Path 37767" d="M11.457,1.421a.855.855,0,0,0-1.358.554C9.571,5.411,8.015,7.389,6.467,9.361l-.042.052c-1.57,2-3.175,4.056-3.175,7.51a9.974,9.974,0,1,0,19.948,0,10.478,10.478,0,0,0-2.276-6.4,12.666,12.666,0,0,0-1.549-1.676q-.351-.316-.73-.6l-.007-.006a.855.855,0,0,0-1.345.726,6.8,6.8,0,0,1-.034.7,10.125,10.125,0,0,1-.331,1.808,7.317,7.317,0,0,1-2.866,4.2l-.019.013a.359.359,0,0,1-.065-.374A17.573,17.573,0,0,0,15.151,8.59a9.181,9.181,0,0,0-3.693-7.169Zm7.389,9.3a11.968,11.968,0,0,1-.272,1.22,9.029,9.029,0,0,1-3.554,5.151,1.694,1.694,0,0,1-2.224-.231,2.065,2.065,0,0,1-.424-2.135,15.883,15.883,0,0,0,1.07-6.051,7.613,7.613,0,0,0-1.958-4.944,17.19,17.19,0,0,1-3.639,6.641l-.075.1C6.2,12.461,4.96,14.108,4.96,16.924a8.264,8.264,0,1,0,16.528,0,8.78,8.78,0,0,0-1.922-5.358,10.974,10.974,0,0,0-.722-.844Z" transform="translate(-3.25 -1.25)" fill="#fd8f06" fill-rule="evenodd"/>
</svg>
