<svg xmlns="http://www.w3.org/2000/svg" width="23.5" height="19.5" viewBox="0 0 23.5 19.5">
  <g id="_18-Account" data-name="18-Account" transform="translate(-0.25 -3.25)">
    <g id="Group_38748" data-name="Group 38748">
      <g id="_11-Camera" data-name="11-Camera" transform="translate(0 1)">
        <g id="Group_38765" data-name="Group 38765">
          <path id="Path_37116" data-name="Path 37116" d="M10.07,3.75a1.25,1.25,0,0,0-1.04.557L7.92,5.97a1.75,1.75,0,0,1-1.455.779H3A1.25,1.25,0,0,0,1.75,8v9A1.25,1.25,0,0,0,3,18.249H6.083a6.75,6.75,0,1,1,11.835,0H21A1.25,1.25,0,0,0,22.25,17V8A1.25,1.25,0,0,0,21,6.75H17.535a1.75,1.75,0,0,1-1.456-.78l-1.11-1.663a1.25,1.25,0,0,0-1.04-.557H10.07Zm6.726,16H21A2.75,2.75,0,0,0,23.75,17V8A2.75,2.75,0,0,0,21,5.25H17.535a.25.25,0,0,1-.208-.111l-1.11-1.664A2.75,2.75,0,0,0,13.93,2.25H10.07A2.75,2.75,0,0,0,7.782,3.475L6.672,5.139a.25.25,0,0,1-.207.111H3A2.75,2.75,0,0,0,.25,8v9A2.75,2.75,0,0,0,3,19.75H7.2a6.75,6.75,0,0,0,9.592,0ZM12,9.75A5.25,5.25,0,1,0,17.25,15,5.25,5.25,0,0,0,12,9.75Z" fill="#293644" fill-rule="evenodd"/>
        </g>
      </g>
    </g>
  </g>
</svg>
