<svg xmlns="http://www.w3.org/2000/svg" width="19.318" height="19.453" viewBox="0 0 19.318 19.453">
  <g id="contact_us" data-name="contact us" transform="translate(0.183)">
    <path id="Shape" d="M9.659,19.454A9.647,9.647,0,0,1,.052,8.8l.1-.957.5-5.228A2.894,2.894,0,1,1,6.4,3.254l-.3,2.371A3.4,3.4,0,0,1,2.739,8.6h-1.3L1.4,8.944a8.3,8.3,0,1,0,16.512,0L17.879,8.6h-1.3a3.4,3.4,0,0,1-3.367-2.972l-.3-2.371a2.894,2.894,0,1,1,5.753-.634l.5,5.228v.005l.1.951A9.648,9.648,0,0,1,9.659,19.454Zm6.129-18.1a1.538,1.538,0,0,0-1.526,1.728l.3,2.371a2.04,2.04,0,0,0,2.02,1.783h1.166l-.428-4.49A1.53,1.53,0,0,0,15.788,1.357Zm-12.258,0A1.532,1.532,0,0,0,2,2.749l-.428,4.49H2.739a2.038,2.038,0,0,0,2.02-1.783l.3-2.371A1.537,1.537,0,0,0,3.53,1.357Z" transform="translate(19.135 19.454) rotate(180)" fill="#8f9bb3"/>
  </g>
</svg>
