<svg xmlns="http://www.w3.org/2000/svg" width="23.422" height="17.538" viewBox="0 0 23.422 17.538">
  <g id="_37-Crown" data-name="37-Crown" transform="translate(-0.289 -3.212)">
    <g id="Group_48347" data-name="Group 48347">
      <path id="Path_37764" data-name="Path 37764" d="M10.4,4.251a1.752,1.752,0,0,1,3.2,0l1.506,3.391a2.25,2.25,0,0,0,3.462.843l2.3-1.838a1.75,1.75,0,0,1,2.807,1.721l-2.108,10.19a2.75,2.75,0,0,1-2.693,2.192H5.13a2.75,2.75,0,0,1-2.693-2.193L.328,8.368A1.749,1.749,0,0,1,3.134,6.647l2.3,1.838a2.25,2.25,0,0,0,3.462-.843L10.4,4.252Zm1.828.61a.25.25,0,0,0-.457,0l-1.507,3.39A3.75,3.75,0,0,1,4.5,9.657L2.2,7.818a.25.25,0,0,0-.4.246L3.9,18.254a1.251,1.251,0,0,0,1.225,1H18.87a1.25,1.25,0,0,0,1.225-1L22.2,8.064a.25.25,0,0,0-.4-.246L19.5,9.657a3.75,3.75,0,0,1-5.77-1.406l-1.507-3.39Z" fill="#fd8f06" fill-rule="evenodd"/>
    </g>
  </g>
</svg>
