<svg id="error" xmlns="http://www.w3.org/2000/svg" width="97.935" height="97.935" viewBox="0 0 97.935 97.935">
  <path id="Path_37790" data-name="Path 37790" d="M32.849,85.693H10.2A10.21,10.21,0,0,1,0,75.491V10.2A10.211,10.211,0,0,1,10.2,0H59.169a10.211,10.211,0,0,1,10.2,10.2V38.888a2.04,2.04,0,1,1-4.081,0V10.2a6.128,6.128,0,0,0-6.121-6.121H10.2A6.128,6.128,0,0,0,4.081,10.2v65.29A6.128,6.128,0,0,0,10.2,81.612H32.849a2.04,2.04,0,0,1,0,4.081Z" fill="#fd8f06"/>
  <path id="Path_37791" data-name="Path 37791" d="M45.846,12.081H5.04A2.04,2.04,0,1,1,5.04,8H45.846a2.04,2.04,0,1,1,0,4.081Z" transform="translate(9.242 24.645)" fill="#fd8f06"/>
  <path id="Path_37792" data-name="Path 37792" d="M29.524,16.081H5.04A2.04,2.04,0,1,1,5.04,12H29.524a2.04,2.04,0,1,1,0,4.081Z" transform="translate(9.242 36.967)" fill="#fd8f06"/>
  <path id="Path_37793" data-name="Path 37793" d="M25.443,8.081H5.04A2.04,2.04,0,1,1,5.04,4h20.4a2.04,2.04,0,0,1,0,4.081Z" transform="translate(9.242 12.322)" fill="#fd8f06"/>
  <path id="Path_37794" data-name="Path 37794" d="M61.008,60.967H16.121A6.128,6.128,0,0,1,10,54.846a5.816,5.816,0,0,1,.959-3.26L33.353,14.938a6.087,6.087,0,0,1,10.438.033L66.215,51.664a5.7,5.7,0,0,1,.914,3.183,6.128,6.128,0,0,1-6.121,6.121ZM38.564,16.081a1.975,1.975,0,0,0-1.706.951L14.395,53.79a1.812,1.812,0,0,0-.314,1.057,2.046,2.046,0,0,0,2.04,2.04H61.008a2.046,2.046,0,0,0,2.04-2.04,1.728,1.728,0,0,0-.265-.979L40.29,17.064a1.993,1.993,0,0,0-1.726-.983Z" transform="translate(30.806 36.967)" fill="#fd8f06"/>
  <path id="Path_37795" data-name="Path 37795" d="M18.54,35.4a2.041,2.041,0,0,1-2.04-2.04V17.04a2.04,2.04,0,1,1,4.081,0V33.363A2.041,2.041,0,0,1,18.54,35.4Z" transform="translate(50.83 46.209)" fill="#fd8f06"/>
  <circle id="Ellipse_463" data-name="Ellipse 463" cx="2.04" cy="2.04" r="2.04" transform="translate(67.33 85.693)" fill="#fd8f06"/>
</svg>
