<svg xmlns="http://www.w3.org/2000/svg" width="23.566" height="23.391" viewBox="0 0 23.566 23.391">
  <g id="_20-Gift" data-name="20-Gift" transform="translate(-1.25 -1.41)">
    <g id="Group_48348" data-name="Group 48348" transform="translate(1.25 1.41)">
      <path id="Path_37765" data-name="Path 37765" d="M4.945,3.931A3.014,3.014,0,0,1,10.05,2.3l2.984,2.983L16.017,2.3a3.014,3.014,0,0,1,5.1,1.635L21.4,5.619h.4a3.014,3.014,0,0,1,3.014,3.014v3.288a1.921,1.921,0,0,1-1.1,1.734v8.131A3.014,3.014,0,0,1,20.706,24.8H5.36a3.014,3.014,0,0,1-3.014-3.014V13.656a1.918,1.918,0,0,1-1.1-1.734V8.633A3.014,3.014,0,0,1,4.264,5.619h.4ZM6.33,5.619h4.718L8.888,3.458a1.37,1.37,0,0,0-2.32.744Zm5.881,1.644V12.2H3.168a.274.274,0,0,1-.274-.274V8.633a1.371,1.371,0,0,1,1.37-1.37ZM13.855,12.2V7.263H21.8a1.371,1.371,0,0,1,1.37,1.37v3.288a.274.274,0,0,1-.274.274ZM12.211,13.84H3.99v7.947a1.371,1.371,0,0,0,1.37,1.37h6.851Zm1.644,9.317V13.84h8.221v7.947a1.371,1.371,0,0,1-1.37,1.37ZM15.017,5.619h4.719L19.5,4.2a1.37,1.37,0,0,0-2.32-.744l-2.16,2.162Z" transform="translate(-1.25 -1.41)" fill="#fd8f06" fill-rule="evenodd"/>
    </g>
  </g>
</svg>
