<svg xmlns="http://www.w3.org/2000/svg" width="23.807" height="23.807" viewBox="0 0 23.807 23.807">
  <g id="Group" transform="translate(-285.748 -34.251)">
    <g id="Input" transform="translate(285.998 34.501)">
      <g id="icons_icon-checkmark" data-name="icons/icon-checkmark" transform="translate(0)">
        <g id="Thin" transform="translate(0 0)">
          <g id="Group_38775" data-name="Group 38775" transform="translate(0)">
            <path id="Path_37146" data-name="Path 37146" d="M14.767,3.113a.613.613,0,0,0-1.227,0ZM13.54,25.193a.613.613,0,1,0,1.227,0ZM25.193,14.767a.613.613,0,1,0,0-1.227ZM3.113,13.54a.613.613,0,0,0,0,1.227Zm19.013.613a7.973,7.973,0,0,1-7.973,7.973v1.227a9.2,9.2,0,0,0,9.2-9.2Zm-7.973,7.973A7.973,7.973,0,0,1,6.18,14.153H4.953a9.2,9.2,0,0,0,9.2,9.2ZM6.18,14.153A7.973,7.973,0,0,1,14.153,6.18V4.953a9.2,9.2,0,0,0-9.2,9.2ZM14.153,6.18a7.973,7.973,0,0,1,7.973,7.973h1.227a9.2,9.2,0,0,0-9.2-9.2Zm3.067,7.973a3.067,3.067,0,0,1-3.067,3.067v1.227a4.293,4.293,0,0,0,4.293-4.293ZM14.153,17.22a3.067,3.067,0,0,1-3.067-3.067H9.86a4.293,4.293,0,0,0,4.293,4.293Zm-3.067-3.067a3.067,3.067,0,0,1,3.067-3.067V9.86A4.293,4.293,0,0,0,9.86,14.153Zm3.067-3.067a3.067,3.067,0,0,1,3.067,3.067h1.227A4.293,4.293,0,0,0,14.153,9.86Zm.613-5.52V3.113H13.54V5.567Zm0,19.627V22.74H13.54v2.453ZM22.74,14.767h2.453V13.54H22.74Zm-19.627,0H5.567V13.54H3.113Z" transform="translate(-2.5 -2.5)" fill="#fff" stroke="#fff" stroke-width="0.5"/>
          </g>
        </g>
      </g>
    </g>
  </g>
</svg>
