<svg xmlns="http://www.w3.org/2000/svg" width="21.066" height="21.066" viewBox="0 0 21.066 21.066">
  <path id="comment-alt-lines" d="M2.633,0h15.8a2.636,2.636,0,0,1,2.633,2.633v11.85a2.636,2.636,0,0,1-2.633,2.633h-3.95v3.456a.492.492,0,0,1-.494.494.472.472,0,0,1-.292-.1L8.558,17.116H2.633A2.636,2.636,0,0,1,0,14.483V2.633A2.636,2.636,0,0,1,2.633,0ZM1.317,14.483A1.321,1.321,0,0,0,2.633,15.8H9l.35.263,3.818,2.864V15.8h5.267a1.321,1.321,0,0,0,1.317-1.317V2.633a1.321,1.321,0,0,0-1.317-1.317H2.633A1.321,1.321,0,0,0,1.317,2.633ZM9.546,9.875H15.47a.33.33,0,0,1,.329.329v.658a.33.33,0,0,1-.329.329H9.546a.33.33,0,0,1-.329-.329V10.2A.33.33,0,0,1,9.546,9.875ZM5.6,5.925H15.47a.33.33,0,0,1,.329.329v.658a.33.33,0,0,1-.329.329H5.6a.33.33,0,0,1-.329-.329V6.254A.33.33,0,0,1,5.6,5.925Z" fill="#bbb"/>
</svg>
