<svg xmlns="http://www.w3.org/2000/svg" width="17.895" height="12.711" viewBox="0 0 17.895 12.711">
  <path id="Path_36135" data-name="Path 36135" d="M1.583,5.48a.2.2,0,0,0-.19.205v1.64a.274.274,0,0,0,.078.18.7.7,0,0,0,.286.194,3.069,3.069,0,0,1,1.921,2.906,3.069,3.069,0,0,1-1.921,2.906.7.7,0,0,0-.286.194.279.279,0,0,0-.078.18v1.64a.2.2,0,0,0,.19.205h9.328V14.706a.573.573,0,1,1,1.142,0v1.025h4.759a.2.2,0,0,0,.19-.205v-1.64a.274.274,0,0,0-.078-.18.7.7,0,0,0-.286-.194,3.069,3.069,0,0,1-1.921-2.906A3.069,3.069,0,0,1,16.64,7.7a.7.7,0,0,0,.286-.194A.279.279,0,0,0,17,7.325V5.685a.2.2,0,0,0-.19-.205H12.053V6.505a.573.573,0,1,1-1.142,0V5.48ZM.25,5.685A1.387,1.387,0,0,1,1.583,4.25h15.23a1.387,1.387,0,0,1,1.333,1.435v1.64a1.678,1.678,0,0,1-1.132,1.536,1.9,1.9,0,0,0,0,3.489,1.677,1.677,0,0,1,1.132,1.536v1.64a1.387,1.387,0,0,1-1.333,1.435H1.583A1.387,1.387,0,0,1,.25,15.526v-1.64A1.678,1.678,0,0,1,1.382,12.35a1.9,1.9,0,0,0,0-3.489A1.676,1.676,0,0,1,.25,7.325ZM11.482,9.17a.594.594,0,0,1,.571.615v1.64a.573.573,0,1,1-1.142,0V9.785A.594.594,0,0,1,11.482,9.17Z" transform="translate(-0.25 -4.25)" fill="#293644" fill-rule="evenodd"/>
</svg>
