<svg id="_16" data-name="16" xmlns="http://www.w3.org/2000/svg" width="19.199" height="19.199" viewBox="0 0 19.199 19.199">
  <g id="Group_10337" data-name="Group 10337" transform="translate(0 0)">
    <g id="_18-Compare" data-name="18-Compare">
      <g id="Group_38695" data-name="Group 38695">
        <path id="Path_37079" data-name="Path 37079" d="M1.25,3.706A2.456,2.456,0,0,1,3.706,1.25H17.994a2.456,2.456,0,0,1,2.456,2.456V17.994a2.456,2.456,0,0,1-2.456,2.456H3.706A2.456,2.456,0,0,1,1.25,17.994ZM3.706,2.589A1.117,1.117,0,0,0,2.589,3.706V17.994A1.117,1.117,0,0,0,3.706,19.11H17.994a1.117,1.117,0,0,0,1.116-1.116V3.706a1.117,1.117,0,0,0-1.116-1.116ZM10.85,5.715a.67.67,0,0,1,.67.67v8.93a.67.67,0,0,1-1.339,0V6.385A.67.67,0,0,1,10.85,5.715ZM6.385,8.394a.67.67,0,0,1,.67.67v6.251a.67.67,0,0,1-1.339,0V9.064a.67.67,0,0,1,.67-.67Zm8.93,2.679a.67.67,0,0,1,.67.67v3.572a.67.67,0,0,1-1.339,0V11.743A.67.67,0,0,1,15.315,11.073Z" transform="translate(-1.25 -1.25)" fill="#e9e9e9" fill-rule="evenodd"/>
      </g>
    </g>
  </g>
</svg>
