<svg xmlns="http://www.w3.org/2000/svg" width="23.5" height="17.75" viewBox="0 0 23.5 17.75">
  <path id="Path_37769" data-name="Path 37769" d="M.25,6A2.75,2.75,0,0,1,3,3.25H9a3.743,3.743,0,0,1,3,1.5,3.744,3.744,0,0,1,3-1.5h6A2.75,2.75,0,0,1,23.75,6V16A2.75,2.75,0,0,1,21,18.75H15A2.25,2.25,0,0,0,12.75,21h-1.5A2.25,2.25,0,0,0,9,18.75H3A2.75,2.75,0,0,1,.25,16Zm11,12A3.734,3.734,0,0,0,9,17.25H3A1.25,1.25,0,0,1,1.75,16V6A1.25,1.25,0,0,1,3,4.75H9A2.25,2.25,0,0,1,11.25,7Zm1.5,0A3.734,3.734,0,0,1,15,17.25h6A1.25,1.25,0,0,0,22.25,16V6A1.25,1.25,0,0,0,21,4.75H15A2.25,2.25,0,0,0,12.75,7Z" transform="translate(-0.25 -3.25)" fill="#e9e9e9" fill-rule="evenodd"/>
</svg>
