<svg xmlns="http://www.w3.org/2000/svg" width="13.88" height="16.727" viewBox="0 0 13.88 16.727">
  <path id="Path_37756" data-name="Path 37756" d="M8.478,1.318a.89.89,0,0,0-.89.89V3.1h3.2v-.89a.89.89,0,0,0-.89-.89ZM11.859,3.1v-.89A1.957,1.957,0,0,0,9.9.25H8.478A1.957,1.957,0,0,0,6.521,2.207V3.1H2.784a.534.534,0,0,0,0,1.068h.234l1.23,11.071a1.957,1.957,0,0,0,1.945,1.741h5.993a1.957,1.957,0,0,0,1.945-1.741l1.23-11.071H15.6a.534.534,0,0,0,0-1.068Zm2.429,1.068H4.092L5.309,15.118a.89.89,0,0,0,.884.792h5.993a.89.89,0,0,0,.884-.792L14.288,4.165ZM7.766,6.656A.534.534,0,0,1,8.3,7.19v5.694a.534.534,0,1,1-1.068,0V7.19A.534.534,0,0,1,7.766,6.656Zm2.847,0a.534.534,0,0,1,.534.534v5.694a.534.534,0,1,1-1.068,0V7.19A.534.534,0,0,1,10.614,6.656Z" transform="translate(-2.25 -0.25)" fill="#293644" fill-rule="evenodd"/>
</svg>
