<svg xmlns="http://www.w3.org/2000/svg" width="16.55" height="16.55" viewBox="0 0 16.55 16.55">
  <path id="Path_37757" data-name="Path 37757" d="M12.556,1.694a2.1,2.1,0,0,1,2.971,0l1.658,1.658a2.1,2.1,0,0,1,0,2.971L7.024,16.483h7.017a.573.573,0,0,1,0,1.146H2.586A1.336,1.336,0,0,1,1.25,16.292V13.553a1.332,1.332,0,0,1,.392-.945ZM5.4,16.483,14,7.891,10.987,4.883,2.451,13.419a.191.191,0,0,0-.056.135v2.738a.191.191,0,0,0,.191.191ZM11.8,4.073l3.008,3.009,1.569-1.57a.955.955,0,0,0,0-1.35L14.716,2.5a.955.955,0,0,0-1.35,0Z" transform="translate(-1.25 -1.078)" fill="#293644" fill-rule="evenodd"/>
</svg>
