<svg xmlns="http://www.w3.org/2000/svg" width="23.5" height="15.5" viewBox="0 0 23.5 15.5">
  <path id="Fill_534" data-name="Fill 534" d="M20.75,15.5h-18A2.753,2.753,0,0,1,0,12.75v-10A2.634,2.634,0,0,1,.29,1.53,2.747,2.747,0,0,1,2.75,0h18a2.746,2.746,0,0,1,2.46,1.53,2.635,2.635,0,0,1,.29,1.22v10A2.753,2.753,0,0,1,20.75,15.5ZM1.5,3.013V12.75A1.252,1.252,0,0,0,2.75,14h18A1.251,1.251,0,0,0,22,12.75V3.013L13.07,7.886a2.759,2.759,0,0,1-2.64,0ZM2.75,1.5a1.269,1.269,0,0,0-.61.156l9.01,4.913a1.26,1.26,0,0,0,1.2,0l9.01-4.913A1.268,1.268,0,0,0,20.75,1.5Z" transform="translate(0 0)" fill="#1f2d35"/>
</svg>
