<svg xmlns="http://www.w3.org/2000/svg" width="175.285" height="167.57" viewBox="0 0 175.285 167.57">
  <g id="illustration" transform="translate(-0.441 -0.262)">
    <path id="Path" d="M54.448,1.294C13.987-.836,0,39.239,0,78.312c0,11.255,4.943,30.828,20.658,34.776,52.821,13.27,37.137-48.387,93.962-12.083s86.07-45.837,32.167-89.315C122.926-7.556,91.18,3.23,54.448,1.294Z" transform="translate(0.441 27.864)" fill="#eff1f3"/>
    <path id="Path-2" data-name="Path" d="M0,25.254l20.5,24.7,27.33-30.69L25.892,0,0,25.254Z" transform="translate(85.586 91.002)" fill="#facbb6"/>
    <path id="Path-3" data-name="Path" d="M0,28.728,32.075,0,69.209,31.638,24.636,61.656,0,28.728Z" transform="translate(96.68 106.176)" fill="#fbb03b"/>
    <path id="Path-4" data-name="Path" d="M12.687,0,52.9,47.04,34.863,59.183,10.228,26.255l2.554-2.184L0,8.649,12.687,0Z" transform="translate(86.452 108.649)" opacity="0.08"/>
    <path id="Path-5" data-name="Path" d="M0,0S21.632,30.059,42.3,31.208s31.725.114,40.32-19.965Z" transform="translate(30.26 85.908)" fill="#facbb6"/>
    <path id="Path-6" data-name="Path" d="M0,0S21.632,30.059,42.3,31.208s31.725.114,40.32-19.965Z" transform="translate(30.26 85.908)" opacity="0.08"/>
    <rect id="Rectangle" width="60.433" height="108.387" rx="8" transform="translate(36.247 0.262)" fill="#8e9191"/>
    <rect id="Rectangle-2" data-name="Rectangle" width="50.024" height="76.279" transform="translate(41.247 12.62)" fill="#fff"/>
    <circle id="Oval" cx="5.914" cy="5.914" r="5.914" transform="translate(60.735 92.749)" fill="#fff" opacity="0.56"/>
    <rect id="Rectangle-3" data-name="Rectangle" width="16.941" height="2.473" rx="1.236" transform="translate(61.353 4.496)" opacity="0.12"/>
    <circle id="Oval-2" data-name="Oval" cx="2.762" cy="2.762" r="2.762" transform="translate(52.456 3.239)" fill="#7c7f7f"/>
    <path id="Path-7" data-name="Path" d="M13.319,0s3.837,6.875-.84,9S0,7.654,0,7.654V2.587Z" transform="translate(36.247 85.64)" opacity="0.08"/>
    <path id="Path-8" data-name="Path" d="M12.23,0s4.3,9.778-.37,11.908S0,10.335,0,10.335v-5.1Z" transform="translate(36.247 65.997)" opacity="0.08"/>
    <path id="Path-9" data-name="Path" d="M12.23,0S15.9,7.8,11.222,9.925,0,10.329,0,10.329V5.262Z" transform="translate(36.247 56.898)" opacity="0.08"/>
    <path id="Path-10" data-name="Path" d="M4.089.694s-9.2,12.452,0,14.784,19,2.688,14.508-8S4.089.694,4.089.694Z" transform="translate(29.007 44.599)" fill="#facbb6"/>
    <path id="Path-11" data-name="Path" d="M4.089.112s-9.2,12.459,0,14.784S21.85,17.826,19.222,6.53C17.388-1.38,4.089.112,4.089.112Z" transform="translate(29.007 58.265)" fill="#facbb6"/>
    <path id="Path-12" data-name="Path" d="M4.089,0s-9.2,12.459,0,14.784,16.43,6.048,16.961-5.255C21.406,1.861,4.089,0,4.089,0Z" transform="translate(29.007 72.636)" fill="#facbb6"/>
    <path id="Path-13" data-name="Path" d="M.833,1.308.013,7.443A1.472,1.472,0,0,0,1.289,9.1l2.016.255a3.36,3.36,0,0,0,3.73-2.56l.511-2.076A3.36,3.36,0,0,0,5.019.6L2.66.044A1.478,1.478,0,0,0,.833,1.308Z" transform="translate(39.044 49.005)" fill="#fff" opacity="0.46"/>
    <path id="Path-14" data-name="Path" d="M.182,10.584S-.4,13.1.525,14.34H53.263V0Z" transform="translate(28.962 43.136)" opacity="0.08"/>
    <rect id="Rectangle-4" data-name="Rectangle" width="57.53" height="41.1" rx="4" transform="translate(26.658 12.62)" fill="#232c2e"/>
    <circle id="Oval-3" data-name="Oval" cx="9.838" cy="9.838" r="9.838" transform="translate(56.911 62.462)" fill="#e24955"/>
    <path id="Path-15" data-name="Path" d="M0,7.837,6.29,0" transform="matrix(0.998, 0.07, -0.07, 0.998, 63.885, 68.153)" fill="none" stroke="#fff" stroke-linecap="round" stroke-linejoin="round" stroke-miterlimit="10" stroke-width="3"/>
    <path id="Path_Copy" data-name="Path Copy" d="M0,7.837,6.29,0" transform="matrix(-0.161, 0.987, -0.987, -0.161, 71.123, 69.807)" fill="none" stroke="#fff" stroke-linecap="round" stroke-linejoin="round" stroke-miterlimit="10" stroke-width="3"/>
    <path id="Path-16" data-name="Path" d="M0,0,2.3,6.727,4.832,0Z" transform="translate(63.961 52.98)" fill="#1d2324"/>
    <path id="Path-17" data-name="Path" d="M7.614,7.319H6.075V3.663a2.258,2.258,0,1,0-4.509,0V7.319H0V3.663a3.824,3.824,0,0,1,7.641,0Z" transform="translate(51.421 17.316)" fill="#c6c7c8"/>
    <path id="Path-18" data-name="Path" d="M7.614,7.319H6.075V3.663a2.258,2.258,0,1,0-4.509,0V7.319H0V3.663a3.824,3.824,0,0,1,7.641,0Z" transform="translate(51.421 17.316)" fill="#8e9191" opacity="0.46"/>
    <rect id="Rectangle-5" data-name="Rectangle" width="11.686" height="9.314" rx="2" transform="translate(49.372 21.84)" fill="#c6c7c8"/>
    <path id="Path-19" data-name="Path" d="M2.473,1.25a1.236,1.236,0,1,0-2.07.9V4.771H2.1V2.13A1.236,1.236,0,0,0,2.473,1.25Z" transform="translate(53.807 23.977)" fill="#1d2324"/>
    <rect id="Rectangle-6" data-name="Rectangle" width="36.154" height="9.059" rx="2" transform="translate(37.712 36.228)" fill="#fff"/>
    <path id="Rectangle-7" data-name="Rectangle" d="M0,0H7.294a2,2,0,0,1,2,2V7.059a2,2,0,0,1-2,2H0a0,0,0,0,1,0,0V0A0,0,0,0,1,0,0Z" transform="translate(64.579 36.228)" fill="#fbb03b"/>
    <circle id="Oval-4" data-name="Oval" cx="1.21" cy="1.21" r="1.21" transform="translate(40.696 39.554)" fill="#24285b"/>
    <circle id="Oval-5" data-name="Oval" cx="1.21" cy="1.21" r="1.21" transform="translate(45.185 39.554)" fill="#24285b"/>
    <circle id="Oval-6" data-name="Oval" cx="1.21" cy="1.21" r="1.21" transform="translate(49.566 39.554)" fill="#24285b"/>
    <circle id="Oval-7" data-name="Oval" cx="1.21" cy="1.21" r="1.21" transform="translate(54.055 39.554)" fill="#24285b"/>
    <circle id="Oval-8" data-name="Oval" cx="1.21" cy="1.21" r="1.21" transform="translate(58.638 39.554)" fill="#24285b"/>
    <path id="Path-20" data-name="Path" d="M11.894,13.03c-.141-2.3-.228-4.6-.2-6.653A6.2,6.2,0,0,0,3.629.329C1.613,1,0,2.721,0,6.377c0,7.271,2.278,17.748,3.562,23.07a20.16,20.16,0,0,1,.444,6.868c-.833,7.856-2.157,26.4,3.636,27.633,6.72,1.431,23.016-.934,10.261-28.11A63.1,63.1,0,0,1,11.894,13.03Z" transform="translate(92.42 37.075)" fill="#facbb6"/>
    <path id="Path-21" data-name="Path" d="M.163,1.247,0,6.663A1.284,1.284,0,0,0,1.258,8.007l1.754.047A2.964,2.964,0,0,0,6.023,5.487l.255-1.848A2.964,2.964,0,0,0,3.711.279L1.614.01A1.29,1.29,0,0,0,.163,1.247Z" transform="translate(39.962 78.56)" fill="#fff" opacity="0.46"/>
    <path id="Path-22" data-name="Path" d="M.833,1.288.014,7.437A1.472,1.472,0,0,0,1.29,9.1l2.016.255a3.4,3.4,0,0,0,3.736-2.56l.5-2.076A3.4,3.4,0,0,0,5.02.6L2.661.045A1.478,1.478,0,0,0,.833,1.288Z" transform="translate(38.438 62.128)" fill="#fff" opacity="0.46"/>
  </g>
</svg>
