<svg id="Groupe_48736" data-name="Groupe 48736" xmlns="http://www.w3.org/2000/svg" width="19.613" height="19.613" viewBox="0 0 19.613 19.613">
  <path id="Tracé_48241" data-name="Tracé 48241" d="M6.5,1.25a.684.684,0,0,1,.684.684v1.14h3.193V1.934a.684.684,0,0,1,1.368,0v1.14h3.193V1.934a.684.684,0,0,1,1.368,0v1.14h2.053a2.509,2.509,0,0,1,2.509,2.509V18.355a2.509,2.509,0,0,1-2.509,2.509H3.759A2.509,2.509,0,0,1,1.25,18.355V5.583A2.509,2.509,0,0,1,3.759,3.074H5.811V1.934A.684.684,0,0,1,6.5,1.25ZM5.811,4.443H3.759a1.141,1.141,0,0,0-1.14,1.14V18.355a1.141,1.141,0,0,0,1.14,1.14h14.6a1.141,1.141,0,0,0,1.14-1.14V5.583a1.141,1.141,0,0,0-1.14-1.14H16.3v.228a.684.684,0,0,1-1.368,0V4.443H11.741v.228a.684.684,0,0,1-1.368,0V4.443H7.18v.228a.684.684,0,0,1-1.368,0Zm0,7.526a.684.684,0,0,1,.684-.684h4.561a.684.684,0,1,1,0,1.368H6.5a.684.684,0,0,1-.684-.684Z" transform="translate(-1.25 -1.25)" fill="#293644" fill-rule="evenodd"/>
  <path id="Tracé_48242" data-name="Tracé 48242" d="M6.934,16.25a.684.684,0,0,0,0,1.368h9.122a.684.684,0,1,0,0-1.368Z" transform="translate(-1.689 -2.566)" fill="#293644"/>
</svg>
