<svg xmlns="http://www.w3.org/2000/svg" width="23.503" height="21.027" viewBox="0 0 23.503 21.027">
  <path id="Fill_760" data-name="Fill 760" d="M17.752,21.027h-12A2.753,2.753,0,0,1,3,18.277V7.568L1.192,8.883a.73.73,0,0,1-.437.144.766.766,0,0,1-.612-.309A.75.75,0,0,1,.01,8.155a.739.739,0,0,1,.3-.484L10.132.526a2.758,2.758,0,0,1,3.24,0l9.82,7.145a.751.751,0,0,1,.17,1.047.768.768,0,0,1-.613.309.732.732,0,0,1-.438-.144L20.5,7.568V18.277A2.753,2.753,0,0,1,17.752,21.027Zm-7-10.5h2a2.753,2.753,0,0,1,2.749,2.75v6.25h2.25A1.251,1.251,0,0,0,19,18.277V6.476l-6.51-4.738a1.269,1.269,0,0,0-1.481,0L4.5,6.476v11.8a1.251,1.251,0,0,0,1.25,1.249H8v-6.25A2.753,2.753,0,0,1,10.751,10.526Zm0,1.5A1.251,1.251,0,0,0,9.5,13.277v6.25H14v-6.25a1.252,1.252,0,0,0-1.25-1.25Z" transform="translate(0 0)" fill="#1f2d35"/>
</svg>
