<svg xmlns="http://www.w3.org/2000/svg" width="15.5" height="23.184" viewBox="0 0 15.5 23.184">
  <path id="Fill_753" data-name="Fill 753" d="M6.747,23.184A2.758,2.758,0,0,1,4,20.5H2.75A2.754,2.754,0,0,1,0,17.75v-15A2.754,2.754,0,0,1,2.75,0h10A2.753,2.753,0,0,1,15.5,2.75V18.331a2.754,2.754,0,0,1-1.84,2.6l-6,2.1A2.766,2.766,0,0,1,6.747,23.184ZM12.753,2.317a1.245,1.245,0,0,0-.413.071l-6,2.1a1.254,1.254,0,0,0-.84,1.18V20.431a1.245,1.245,0,0,0,1.661,1.18l6-2.1A1.256,1.256,0,0,0,14,18.331V3.569A1.251,1.251,0,0,0,12.753,2.317ZM2.75,1.5A1.252,1.252,0,0,0,1.5,2.75v15A1.252,1.252,0,0,0,2.75,19H4V5.669a2.755,2.755,0,0,1,1.84-2.6L10.34,1.5Zm6,13A.751.751,0,0,1,8,13.75v-2a.75.75,0,1,1,1.5,0v2A.751.751,0,0,1,8.75,14.5Z" fill="#1f2d35"/>
</svg>
