<svg xmlns="http://www.w3.org/2000/svg" width="18.681" height="20.1" viewBox="0 0 18.681 20.1">
  <g id="listing" transform="translate(-2.321 -0.922)">
    <path id="Path_37061" data-name="Path 37061" d="M11.2,1.975a1.1,1.1,0,0,0-1.05,0L2.768,6.005a.219.219,0,0,0,0,.385l7.387,4.03a1.1,1.1,0,0,0,1.05,0l7.387-4.03a.219.219,0,0,0,0-.385L11.2,1.975ZM11.833.822l7.388,4.03a1.533,1.533,0,0,1,0,2.691l-1.548.845,1.548.845a1.533,1.533,0,0,1,0,2.691l-1.548.845,1.548.845a1.533,1.533,0,0,1,0,2.691l-7.388,4.03a2.409,2.409,0,0,1-2.308,0L2.137,16.3a1.533,1.533,0,0,1,0-2.691l1.548-.845-1.548-.845a1.533,1.533,0,0,1,0-2.691l1.548-.845L2.137,7.544a1.533,1.533,0,0,1,0-2.691L9.525.822A2.409,2.409,0,0,1,11.833.822ZM5.057,9.136l-2.289,1.25a.219.219,0,0,0,0,.384l7.387,4.03a1.1,1.1,0,0,0,1.05,0l7.387-4.03a.219.219,0,0,0,0-.384L16.3,9.136l-4.468,2.437a2.409,2.409,0,0,1-2.308,0L5.058,9.136Zm0,4.38-2.289,1.25a.219.219,0,0,0,0,.385l7.387,4.03a1.1,1.1,0,0,0,1.05,0l7.387-4.03a.219.219,0,0,0,0-.385L16.3,13.517l-4.468,2.437a2.409,2.409,0,0,1-2.308,0L5.058,13.517Z" transform="translate(0.983 0.394)" fill="#8f9bb3" fill-rule="evenodd"/>
  </g>
</svg>
