<svg xmlns="http://www.w3.org/2000/svg" width="15.5" height="22.867" viewBox="0 0 15.5 22.867">
  <path id="Fill_754" data-name="Fill 754" d="M6.746,22.867A2.757,2.757,0,0,1,4,20.183H2.75A2.753,2.753,0,0,1,0,17.434v-12a2.753,2.753,0,0,1,2.75-2.75H4A2.747,2.747,0,0,1,7.66.157l6,2.1a2.755,2.755,0,0,1,1.84,2.6V18.014a2.755,2.755,0,0,1-1.84,2.6l-6,2.1A2.763,2.763,0,0,1,6.746,22.867Zm0-21.367h0A1.251,1.251,0,0,0,5.5,2.752V20.114A1.246,1.246,0,0,0,7.16,21.295l6-2.1A1.254,1.254,0,0,0,14,18.014V4.853a1.254,1.254,0,0,0-.841-1.18l-6-2.1A1.245,1.245,0,0,0,6.747,1.5Zm-4,2.683A1.252,1.252,0,0,0,1.5,5.433v12a1.251,1.251,0,0,0,1.25,1.249H4V4.183Zm6,9a.751.751,0,0,1-.75-.75v-2a.75.75,0,1,1,1.5,0v2A.751.751,0,0,1,8.75,13.183Z" transform="translate(0 0)" fill="#1f2d35"/>
</svg>
