<svg xmlns="http://www.w3.org/2000/svg" width="17.5" height="23.5" viewBox="0 0 17.5 23.5">
  <path id="Fill_759" data-name="Fill 759" d="M14.75,23.5h-12A2.753,2.753,0,0,1,0,20.75v-8A2.754,2.754,0,0,1,2.75,10H3V5.75a5.75,5.75,0,1,1,11.5,0V10h.25a2.753,2.753,0,0,1,2.75,2.75v8A2.753,2.753,0,0,1,14.75,23.5Zm-12-12A1.252,1.252,0,0,0,1.5,12.75v8A1.251,1.251,0,0,0,2.75,22h12A1.251,1.251,0,0,0,16,20.75v-8a1.252,1.252,0,0,0-1.25-1.25Zm6-10A4.255,4.255,0,0,0,4.5,5.75V10H13V5.75A4.255,4.255,0,0,0,8.75,1.5Zm0,17A.751.751,0,0,1,8,17.75v-2a.75.75,0,0,1,1.5,0v2A.751.751,0,0,1,8.75,18.5Z" transform="translate(0 0)" fill="#1f2d35"/>
</svg>
