<svg xmlns="http://www.w3.org/2000/svg" width="17.5" height="23.207" viewBox="0 0 17.5 23.207">
  <path id="Fill_675" data-name="Fill 675" d="M8.75,23.207a1.652,1.652,0,0,1-1.11-.427,29.964,29.964,0,0,1-4.51-5.17A15.9,15.9,0,0,1,0,8.75a8.75,8.75,0,0,1,17.5,0A15.909,15.909,0,0,1,14.37,17.61a30.06,30.06,0,0,1-4.51,5.17A1.652,1.652,0,0,1,8.75,23.207ZM8.75,1.5A7.258,7.258,0,0,0,1.5,8.75a14.367,14.367,0,0,0,2.87,8.01,27.709,27.709,0,0,0,4.279,4.9l.1.05.1-.05a27.717,27.717,0,0,0,4.28-4.9A14.375,14.375,0,0,0,16,8.75,7.258,7.258,0,0,0,8.75,1.5Zm0,11A3.75,3.75,0,1,1,12.5,8.75,3.754,3.754,0,0,1,8.75,12.5Zm0-6A2.25,2.25,0,1,0,11,8.75,2.253,2.253,0,0,0,8.75,6.5Z" fill="#fd8f06"/>
</svg>
