<svg xmlns="http://www.w3.org/2000/svg" width="21.833" height="22.023" viewBox="0 0 21.833 22.023">
  <g id="_18-Account" data-name="18-Account" transform="translate(-1.338 -3.04)">
    <g id="Group_38748" data-name="Group 38748">
      <g id="_3-Handset" data-name="3-Handset" transform="translate(-0.045 3)">
        <g id="Group_38751" data-name="Group 38751">
          <g id="_2-Pointer" data-name="2-Pointer" transform="translate(0.044 -0.797)">
            <g id="Group_38753" data-name="Group 38753">
              <g id="Thin" transform="translate(-1.906 -2.133)">
                <g id="Group_38757" data-name="Group 38757" transform="translate(4.001 3.732)">
                  <g id="Group_38756" data-name="Group 38756" transform="translate(1.224)">
                    <path id="Path_37111" data-name="Path 37111" d="M5.45,15.348l-.3.6a1.2,1.2,0,0,0-.121.655l.44,4.408a1.2,1.2,0,0,0,1.349,1.066l6.71-.894A1.2,1.2,0,0,0,14.568,20V18.845a1.2,1.2,0,0,0-.061-.378l-.724-2.172a1.2,1.2,0,0,0-1.608-.722l-2.248.963a1.2,1.2,0,0,1-1.316-.254L7.364,15.038a1.2,1.2,0,0,0-1.916.311Z" transform="translate(-5.024 -1.579)" fill="none" stroke="#293644" stroke-linecap="round" stroke-linejoin="round" stroke-width="1.5"/>
                    <path id="Path_37112" data-name="Path 37112" d="M21.9,15.357l.273-2.721a1.21,1.21,0,0,0-.03-.409l-1.9-7.587a1.2,1.2,0,0,0-1.9-.655L15.376,6.3a1.2,1.2,0,0,0-.2,1.692L16.2,9.272a1.2,1.2,0,0,1-.016,1.514l-.73.877a1.2,1.2,0,0,0,.919,1.962H17.41a1.2,1.2,0,0,1,.957.479l1.388,1.851A1.2,1.2,0,0,0,21.9,15.357Z" transform="translate(-3.08 -3.732)" fill="none" stroke="#293644" stroke-linecap="round" stroke-linejoin="round" stroke-width="1.5"/>
                  </g>
                  <path id="Path_37113" data-name="Path 37113" d="M9.384,4.963A9.573,9.573,0,1,1,5.657,8.189" transform="translate(-4.001 -3.681)" fill="none" stroke="#293644" stroke-width="1.5"/>
                  <path id="Path_37114" data-name="Path 37114" d="M9.786,6.264A3.132,3.132,0,0,1,9.068,8.2a20.866,20.866,0,0,1-1.5,1.6.252.252,0,0,1-.357,0,20.865,20.865,0,0,1-1.5-1.6A3.132,3.132,0,0,1,5,6.264,2.331,2.331,0,0,1,7.393,4,2.331,2.331,0,0,1,9.786,6.264Z" transform="translate(-3.805 -3.68)" fill="none" stroke="#293644" stroke-width="1.5"/>
                </g>
              </g>
            </g>
          </g>
        </g>
      </g>
    </g>
  </g>
</svg>
