<svg xmlns="http://www.w3.org/2000/svg" xmlns:xlink="http://www.w3.org/1999/xlink" width="135" height="110" viewBox="0 0 135 110">
  <defs>
    <filter id="Rectangle_4851" x="0" y="0" width="135" height="110" filterUnits="userSpaceOnUse">
      <feOffset dy="20" input="SourceAlpha"/>
      <feGaussianBlur stdDeviation="15" result="blur"/>
      <feFlood flood-color="#d3d1d8" flood-opacity="0.588"/>
      <feComposite operator="in" in2="blur"/>
      <feComposite in="SourceGraphic"/>
    </filter>
    <filter id="Ellipse_64" x="39.5" y="31.5" width="55" height="55" filterUnits="userSpaceOnUse">
      <feOffset dy="5" input="SourceAlpha"/>
      <feGaussianBlur stdDeviation="6.5" result="blur-2"/>
      <feFlood flood-color="#b5b5b5" flood-opacity="0.4"/>
      <feComposite operator="in" in2="blur-2"/>
      <feComposite in="SourceGraphic"/>
    </filter>
  </defs>
  <g id="Group_38892" data-name="Group 38892" transform="translate(14 -272)">
    <g transform="matrix(1, 0, 0, 1, -14, 272)" filter="url(#Rectangle_4851)">
      <rect id="Rectangle_4851-2" data-name="Rectangle 4851" width="44" height="19" rx="9.5" transform="translate(45.5 25.5)" fill="#fd8f06" stroke="#e8e8e8" stroke-width="1"/>
    </g>
    <g id="Group_38895" data-name="Group 38895" transform="translate(1.377 1)">
      <text id="Call" transform="translate(46 311)" fill="#fff" font-size="12" font-family="Montserrat-Bold, Montserrat" font-weight="700"><tspan x="0" y="0">You</tspan></text>
      <g id="_2-Pointer" data-name="2-Pointer" transform="translate(49.584 283.379)">
        <g id="Group_38894" data-name="Group 38894" transform="translate(3.25 0.25)">
          <path id="Path_37243" data-name="Path 37243" d="M7.128.915A3.213,3.213,0,0,0,3.915,4.128,6.512,6.512,0,0,0,5.185,7.68a12.691,12.691,0,0,0,1.9,2.172.065.065,0,0,0,.092,0,12.655,12.655,0,0,0,1.9-2.172,6.507,6.507,0,0,0,1.27-3.552A3.213,3.213,0,0,0,7.128.915ZM3.25,4.128a3.878,3.878,0,0,1,7.756,0A7.168,7.168,0,0,1,9.621,8.054a13.3,13.3,0,0,1-2,2.29.729.729,0,0,1-.986,0,13.341,13.341,0,0,1-2-2.29A7.168,7.168,0,0,1,3.25,4.128Zm3.878-1a1,1,0,1,0,1,1A1,1,0,0,0,7.128,3.131Zm-1.662,1A1.662,1.662,0,1,1,7.128,5.79,1.662,1.662,0,0,1,5.466,4.128Z" transform="translate(-20.462 17.121)" fill="#fff" fill-rule="evenodd"/>
        </g>
      </g>
      <g transform="matrix(1, 0, 0, 1, -15.38, 271)" filter="url(#Ellipse_64)">
        <g id="Ellipse_64-2" data-name="Ellipse 64" transform="translate(64 51)" fill="#fd8f06" stroke="#fff" stroke-width="5" stroke-dasharray="0 0">
          <circle cx="3" cy="3" r="3" stroke="none"/>
          <circle cx="3" cy="3" r="5.5" fill="none"/>
        </g>
      </g>
    </g>
  </g>
</svg>
