<svg xmlns="http://www.w3.org/2000/svg" width="21.401" height="23.5" viewBox="0 0 21.401 23.5">
  <g id="_15" data-name="15" transform="translate(-2.299 38.75)">
    <g id="Groupe_38347" data-name="Groupe 38347">
      <path id="Tracé_37060" data-name="Tracé 37060" d="M12,.25a.75.75,0,0,1,.75.75V2.291A6.751,6.751,0,0,1,18.75,9v1.1a7.249,7.249,0,0,0,1.679,4.639l.414.5A2.751,2.751,0,0,1,18.73,19.75H15.75V20a3.75,3.75,0,1,1-7.5,0v-.25H5.27a2.75,2.75,0,0,1-2.113-4.51l.413-.495A7.25,7.25,0,0,0,5.25,10.1V9a6.751,6.751,0,0,1,6-6.709V1A.75.75,0,0,1,12,.25ZM9.75,19.75V20a2.25,2.25,0,0,0,4.5,0v-.25Zm-4.48-1.5a1.25,1.25,0,0,1-.96-2.05l.412-.495A8.75,8.75,0,0,0,6.75,10.1V9a5.25,5.25,0,1,1,10.5,0v1.1a8.75,8.75,0,0,0,2.028,5.6l.412.5a1.25,1.25,0,0,1-.96,2.05ZM19.55,2.4a.75.75,0,0,1,1.05.15,10.7,10.7,0,0,1,2.1,5.376.75.75,0,1,1-1.493.148A9.2,9.2,0,0,0,19.4,3.45a.75.75,0,0,1,.15-1.05Zm-15.1,0A.75.75,0,0,1,4.6,3.45,9.2,9.2,0,0,0,2.8,8.074.75.75,0,1,1,1.3,7.926,10.7,10.7,0,0,1,3.4,2.55.75.75,0,0,1,4.45,2.4Z" transform="translate(1 -39)" fill="#484848" fill-rule="evenodd"/>
    </g>
  </g>
</svg>
