<svg id="Groupe_38879" data-name="Groupe 38879" xmlns="http://www.w3.org/2000/svg" width="14.672" height="19.521" viewBox="0 0 14.672 19.521">
  <path id="Tracé_37242" data-name="Tracé 37242" d="M10.586,1.508a6.078,6.078,0,1,0,6.078,6.078A6.078,6.078,0,0,0,10.586,1.508ZM3.25,7.586a7.336,7.336,0,1,1,12.926,4.75l1.339,5.624A1.467,1.467,0,0,1,15.5,19.644l-4.829-2.113a.21.21,0,0,0-.169,0l-4.83,2.113A1.467,1.467,0,0,1,3.657,17.96L5,12.336A7.309,7.309,0,0,1,3.25,7.586Zm2.8,5.764-1.168,4.9a.21.21,0,0,0,.288.241L10,16.38a1.467,1.467,0,0,1,1.176,0L16,18.492a.21.21,0,0,0,.288-.241l-1.168-4.9a7.337,7.337,0,0,1-9.076,0Zm8.336-7.885a.629.629,0,0,1,0,.889L11.03,9.707a.629.629,0,0,1-.889,0L8.465,8.03a.629.629,0,0,1,.889-.889l1.232,1.232L13.5,5.465a.629.629,0,0,1,.889,0Z" transform="translate(-3.25 -0.25)" fill="#293644" fill-rule="evenodd"/>
</svg>
