<svg xmlns="http://www.w3.org/2000/svg" width="21.411" height="21.411" viewBox="0 0 21.411 21.411">
  <g id="_18-Account" data-name="18-Account" transform="translate(-1.294 -4.25)">
    <g id="Groupe_38748" data-name="Groupe 38748">
      <g id="_3-Handset" data-name="3-Handset" transform="translate(-0.045 3)">
        <g id="Groupe_38751" data-name="Groupe 38751">
          <path id="Tracé_37109" data-name="Tracé 37109" d="M4,2.75A1.106,1.106,0,0,0,2.845,3.923,19.256,19.256,0,0,0,20.077,21.155,1.106,1.106,0,0,0,21.25,20V16.442a1.25,1.25,0,0,0-.855-1.186L16.935,14.1a1.25,1.25,0,0,0-1.279.3l-.554.554a1.73,1.73,0,0,1-2.2.213,13.636,13.636,0,0,1-4.1-4.088A1.725,1.725,0,0,1,9.03,8.909L9.6,8.344a1.25,1.25,0,0,0,.3-1.28L8.744,3.6A1.25,1.25,0,0,0,7.56,2.75ZM1.352,4.071A2.6,2.6,0,0,1,4,1.25H7.559a2.75,2.75,0,0,1,2.608,1.88l1.154,3.46A2.75,2.75,0,0,1,10.656,9.4l-.566.566a.225.225,0,0,0-.038.283,12.149,12.149,0,0,0,3.7,3.68.23.23,0,0,0,.293-.035l.554-.554a2.75,2.75,0,0,1,2.814-.665l3.46,1.154a2.75,2.75,0,0,1,1.88,2.609V20a2.605,2.605,0,0,1-2.821,2.648A20.756,20.756,0,0,1,1.352,4.071Z" fill="#293644" fill-rule="evenodd"/>
        </g>
      </g>
    </g>
  </g>
</svg>
