<svg xmlns="http://www.w3.org/2000/svg" width="19.311" height="19.413" viewBox="0 0 19.311 19.413">
  <g id="_37" data-name="37" transform="translate(0 1.156)">
    <g id="Groupe_38510" data-name="Groupe 38510">
      <g id="_21-Shout" data-name="21-Shout" transform="translate(-1.25 -2.292)">
        <g id="Groupe_38822" data-name="Groupe 38822" transform="translate(1.25 1.136)">
          <path id="Tracé_37227" data-name="Tracé 37227" d="M16.519,3.013a.526.526,0,0,0-.9-.372C13.4,4.856,11.241,6.178,7.977,6.178H3.72A1.123,1.123,0,0,0,2.6,7.3v3.593A1.123,1.123,0,0,0,3.72,12.016H7.978l.247,0c3.129.065,5.239,1.38,7.395,3.534a.526.526,0,0,0,.9-.372ZM14.667,1.688a1.874,1.874,0,0,1,3.2,1.325V6.627h.225a2.47,2.47,0,1,1,0,4.94h-.225v3.614a1.874,1.874,0,0,1-3.2,1.325,9.117,9.117,0,0,0-5.578-3.081l1.03,4.121a2.416,2.416,0,1,1-4.688,1.172L4.093,13.364H3.72a2.47,2.47,0,0,1-2.47-2.47V7.3a2.47,2.47,0,0,1,2.47-2.47H7.978c2.786,0,4.626-1.08,6.689-3.143ZM5.481,13.365l1.257,5.028a1.069,1.069,0,1,0,2.073-.519L7.684,13.365H5.48Zm12.385-3.144h.225a1.123,1.123,0,1,0,0-2.245h-.225Z" transform="translate(-1.25 -1.136)" fill="#293644" fill-rule="evenodd"/>
        </g>
      </g>
    </g>
  </g>
</svg>
