<svg xmlns="http://www.w3.org/2000/svg" width="17.071" height="17.069" viewBox="0 0 17.071 17.069">
  <g id="_21" data-name="21" transform="translate(-9.215 -1.106)">
    <g id="Groupe_38511" data-name="Groupe 38511">
      <g id="_46-Rocket" data-name="46-Rocket" transform="translate(-1.111 0.034)">
        <g id="Groupe_38821" data-name="Groupe 38821" transform="translate(1.326 1.072)">
          <path id="Tracé_37226" data-name="Tracé 37226" d="M7.852,5.679a9.488,9.488,0,0,1,9.314-4.533A1.335,1.335,0,0,1,18.324,2.3a9.487,9.487,0,0,1-4.533,9.313l-1.065.639V14.48a2.173,2.173,0,0,1-.815,1.7l-2.075,1.66a1.383,1.383,0,0,1-2.247-1.08V15.291a2.173,2.173,0,0,1-2.279-.506l-.626-.625a2.173,2.173,0,0,1-.506-2.28H2.712a1.383,1.383,0,0,1-1.08-2.247L3.291,7.56a2.173,2.173,0,0,1,1.7-.816H7.212l.64-1.065ZM6.5,7.93H4.989a.987.987,0,0,0-.771.371L2.558,10.374a.2.2,0,0,0,.155.321H4.842L6.5,7.93Zm2.272,6.7v2.129a.2.2,0,0,0,.321.155l2.074-1.659a.988.988,0,0,0,.371-.771V12.967L8.774,14.627Zm8.244-12.3a8.3,8.3,0,0,0-8.15,3.967l-3.5,5.826a.988.988,0,0,0,.149,1.207l.625.625a.988.988,0,0,0,1.207.149l5.826-3.5a8.3,8.3,0,0,0,3.967-8.15.149.149,0,0,0-.129-.129Zm-2.1,2.225a.593.593,0,0,1,0,.838l-.79.79a.593.593,0,0,1-.838-.838l.79-.79a.593.593,0,0,1,.838,0ZM3.858,15.61a.593.593,0,0,1,0,.838l-.79.79A.593.593,0,0,1,2.23,16.4l.79-.79A.593.593,0,0,1,3.858,15.61Z" transform="translate(7.674 -1.072)" fill="#293644" fill-rule="evenodd"/>
        </g>
      </g>
    </g>
  </g>
</svg>
