<svg id="_25" data-name="25" xmlns="http://www.w3.org/2000/svg" width="15.63" height="18.836" viewBox="0 0 15.63 18.836">
  <g id="Group_38512" data-name="Group 38512">
    <path id="Path_37077" data-name="Path 37077" d="M12.7,13.925h0Z" transform="translate(-4.79 -2.649)" fill="#293644" fill-rule="evenodd"/>
    <g id="_7-Timer" data-name="7-Timer">
      <g id="Group_38820" data-name="Group 38820">
        <path id="Path_37225" data-name="Path 37225" d="M7.059.851a.6.6,0,0,1,.6-.6H12.47a.6.6,0,0,1,0,1.2h-1.8V3.479A7.783,7.783,0,0,1,15.15,5.337l.9-.9a.6.6,0,1,1,.85.85l-.9.9A7.815,7.815,0,1,1,9.464,3.479V1.452H7.66a.6.6,0,0,1-.6-.6Zm3.006,3.807a6.613,6.613,0,1,0,6.613,6.613A6.613,6.613,0,0,0,10.065,4.658ZM6.434,7.64a.6.6,0,0,1,.85,0l2.31,2.309a1.4,1.4,0,1,1-.85.85L6.434,8.491A.6.6,0,0,1,6.434,7.64Zm3.631,3.431a.2.2,0,1,0,.2.162A.2.2,0,0,0,10.065,11.071Z" transform="translate(-2.25 -0.25)" fill="#293644" fill-rule="evenodd"/>
      </g>
    </g>
  </g>
</svg>
