<svg id="icon_logout" data-name="icon/logout" xmlns="http://www.w3.org/2000/svg" width="24" height="24" viewBox="0 0 24 24">
  <path id="Path" d="M0,0H24V24H0Z" fill="none"/>
  <path id="Shape" d="M16,18H2a2,2,0,0,1-2-2V13a1,1,0,1,1,2,0v2a1,1,0,0,0,1,1H15a1,1,0,0,0,1-1V3a1,1,0,0,0-1-1H3A1,1,0,0,0,2,3V5A1,1,0,0,1,0,5V2A2,2,0,0,1,2,0H16a2,2,0,0,1,2,2V16A2,2,0,0,1,16,18ZM8.5,13.583a1,1,0,0,1-.7-1.7L9.67,10H1A1,1,0,1,1,1,8H9.67L7.79,6.11A1,1,0,1,1,9.2,4.7l3.59,3.59a1,1,0,0,1,0,1.41L9.2,13.29A.99.99,0,0,1,8.5,13.583Z" transform="translate(3 3)" fill="#2b1f1f" stroke="#fff" stroke-miterlimit="10" stroke-width="1"/>
</svg>
