<svg xmlns="http://www.w3.org/2000/svg" width="23.566" height="20.031" viewBox="0 0 23.566 20.031">
  <path id="Shape" d="M16.418,20.031h0a7.135,7.135,0,0,1-4.473-1.588l-.162-.132-.162.132a7.1,7.1,0,0,1-9.539-.534,7.047,7.047,0,0,1-.3-9.686C3.814,5.989,5.6,4.18,7.084,2.845A21.878,21.878,0,0,1,9.576.869,4.308,4.308,0,0,1,11.783,0a4.309,4.309,0,0,1,2.208.869,21.776,21.776,0,0,1,2.491,1.976c1.495,1.341,3.278,3.15,5.3,5.378a7.125,7.125,0,0,1-5.363,11.808Zm-4.635-3.7h0l1.12.9a5.581,5.581,0,0,0,7.5-.42,5.485,5.485,0,0,0,.251-7.539c-1.985-2.188-3.731-3.96-5.187-5.267a20.207,20.207,0,0,0-2.306-1.834,2.943,2.943,0,0,0-1.375-.62,2.95,2.95,0,0,0-1.375.62A20.207,20.207,0,0,0,8.1,4.005C6.642,5.316,4.9,7.088,2.915,9.272a5.486,5.486,0,0,0,.252,7.539,5.581,5.581,0,0,0,7.5.42l1.119-.9Z" transform="translate(23.566 20.031) rotate(180)" fill="#fd8f06"/>
</svg>
