<svg id="_25-Embed" data-name="25-Embed" xmlns="http://www.w3.org/2000/svg" width="18.049" height="18.049" viewBox="0 0 18.049 18.049">
  <g id="Group_48355" data-name="Group 48355">
    <path id="Path_37768" data-name="Path 37768" d="M1.25,3.559A2.309,2.309,0,0,1,3.559,1.25H13.632a2.309,2.309,0,0,1,2.309,2.309V4.608H16.99A2.309,2.309,0,0,1,19.3,6.916v.839a.63.63,0,0,1-1.259,0V6.916A1.05,1.05,0,0,0,16.99,5.867H15.941v7.765a2.309,2.309,0,0,1-2.309,2.309H5.867V16.99A1.05,1.05,0,0,0,6.916,18.04h.839a.63.63,0,1,1,0,1.259H6.916A2.309,2.309,0,0,1,4.608,16.99V15.941H3.559A2.309,2.309,0,0,1,1.25,13.632ZM3.559,2.509A1.05,1.05,0,0,0,2.509,3.559V13.632a1.05,1.05,0,0,0,1.049,1.049H13.632a1.05,1.05,0,0,0,1.049-1.049V3.559a1.05,1.05,0,0,0-1.049-1.049ZM4.608,7.756a.63.63,0,0,1,.63-.63H8.6a.63.63,0,1,1,0,1.259H5.238A.63.63,0,0,1,4.608,7.756Zm0,3.358a.63.63,0,0,1,.63-.63h6.716a.63.63,0,0,1,0,1.259H5.238A.63.63,0,0,1,4.608,11.114Zm14.061-.63a.63.63,0,0,1,.63.63v1.679a.63.63,0,0,1-1.259,0V11.114A.63.63,0,0,1,18.669,10.484Zm0,5.037a.63.63,0,0,1,.63.63v.839A2.309,2.309,0,0,1,16.99,19.3h-.839a.63.63,0,1,1,0-1.259h.839A1.05,1.05,0,0,0,18.04,16.99v-.839A.63.63,0,0,1,18.669,15.521Zm-8.185,3.148a.63.63,0,0,1,.63-.63h1.679a.63.63,0,1,1,0,1.259H11.114A.63.63,0,0,1,10.484,18.669Z" transform="translate(-1.25 -1.25)" fill="#293644" fill-rule="evenodd"/>
  </g>
</svg>
