<svg xmlns="http://www.w3.org/2000/svg" width="21.603" height="21.601" viewBox="0 0 21.603 21.601">
  <path id="Path_37230" data-name="Path 37230" d="M9.584,6.9A12.007,12.007,0,0,1,21.37,1.165a1.69,1.69,0,0,1,1.466,1.466A12.006,12.006,0,0,1,17.1,14.416l-1.348.809v2.814a2.75,2.75,0,0,1-1.032,2.147l-2.625,2.1a1.75,1.75,0,0,1-2.843-1.367V19.066a2.75,2.75,0,0,1-2.884-.64l-.792-.791a2.75,2.75,0,0,1-.64-2.885H3.08a1.75,1.75,0,0,1-1.367-2.843l2.1-2.625A2.75,2.75,0,0,1,5.96,8.25H8.774L9.584,6.9ZM7.875,9.75H5.961a1.248,1.248,0,0,0-.976.47l-2.1,2.624a.25.25,0,0,0,.2.406H5.775l2.1-3.5Zm2.875,8.475v2.694a.25.25,0,0,0,.406.2l2.625-2.1a1.25,1.25,0,0,0,.47-.976V16.125l-3.5,2.1ZM21.183,2.654A10.507,10.507,0,0,0,10.87,7.674L6.447,15.047a1.25,1.25,0,0,0,.188,1.527l.791.791a1.25,1.25,0,0,0,1.527.189l7.373-4.424a10.507,10.507,0,0,0,5.02-10.313.188.188,0,0,0-.163-.163ZM18.53,5.47a.75.75,0,0,1,0,1.06l-1,1a.75.75,0,0,1-1.06-1.06l1-1a.75.75,0,0,1,1.06,0Zm-14,14a.75.75,0,0,1,0,1.06l-1,1a.75.75,0,0,1-1.06-1.06l1-1a.75.75,0,0,1,1.06,0Z" transform="translate(-1.326 -1.072)" fill="#202020" fill-rule="evenodd"/>
</svg>
