<svg xmlns="http://www.w3.org/2000/svg" width="20.8" height="17.68" viewBox="0 0 20.8 17.68">
  <g id="saved" transform="translate(-0.3 -1)">
    <path id="Shape" d="M14.491,17.68h0a6.3,6.3,0,0,1-3.948-1.4l-.143-.116-.143.116a6.268,6.268,0,0,1-8.42-.472,6.22,6.22,0,0,1-.262-8.549c1.79-1.971,3.364-3.568,4.677-4.747A19.31,19.31,0,0,1,8.452.767,3.8,3.8,0,0,1,10.4,0a3.8,3.8,0,0,1,1.948.767,19.22,19.22,0,0,1,2.2,1.744c1.319,1.184,2.893,2.781,4.677,4.747A6.289,6.289,0,0,1,14.491,17.68ZM10.4,14.41h0l.988.8a4.926,4.926,0,0,0,6.617-.371,4.842,4.842,0,0,0,.221-6.655c-1.752-1.931-3.293-3.5-4.578-4.648a17.836,17.836,0,0,0-2.036-1.619A2.6,2.6,0,0,0,10.4,1.369a2.6,2.6,0,0,0-1.213.547A17.836,17.836,0,0,0,7.151,3.535C5.862,4.692,4.321,6.256,2.572,8.184a4.843,4.843,0,0,0,.222,6.655,4.926,4.926,0,0,0,6.617.371l.988-.8Z" transform="translate(21.099 18.68) rotate(180)" fill="#8f9bb3"/>
  </g>
</svg>
