<svg xmlns="http://www.w3.org/2000/svg" width="17.243" height="17.243" viewBox="0 0 17.243 17.243">
  <path id="Shape" d="M4.381,18.433A3.008,3.008,0,0,1,9.59,15.6l5.955-2.977a3.018,3.018,0,0,1,0-1.561L9.59,8.079A3.008,3.008,0,1,1,10.128,7l5.957,2.977a3.007,3.007,0,1,1,0,3.712l-5.956,2.977a2.967,2.967,0,0,1,.1.78,3.007,3.007,0,0,1-5.849.982Zm1.038-.982a1.8,1.8,0,1,0,1.8-1.8A1.8,1.8,0,0,0,5.419,17.451Zm11.228-5.613a1.8,1.8,0,1,0,1.8-1.8A1.8,1.8,0,0,0,16.646,11.838ZM5.42,6.224a1.8,1.8,0,0,0,1.8,1.8h0a1.8,1.8,0,0,0,0-3.608h0A1.8,1.8,0,0,0,5.42,6.224Z" transform="translate(21.459 20.458) rotate(180)" fill="#484848"/>
</svg>
