<svg xmlns="http://www.w3.org/2000/svg" width="23.493" height="16.501" viewBox="0 0 23.493 16.501">
  <g id="Group" transform="translate(-284.999 -38)">
    <g id="Input" transform="translate(260 11)">
      <g id="icons_icon-checkmark" data-name="icons/icon-checkmark" transform="translate(19 19)">
        <path id="Path_37093" data-name="Path 37093" d="M11.5,4.75a6.75,6.75,0,0,0-6.742,6.411.75.75,0,0,1-.564.689A3.252,3.252,0,0,0,5,18.25H7a.75.75,0,1,1,0,1.5H5a4.75,4.75,0,0,1-1.7-9.188,8.251,8.251,0,0,1,15.33-3.21A6.252,6.252,0,0,1,17.5,19.75H17a.75.75,0,0,1,0-1.5h.5a4.75,4.75,0,0,0,.567-9.467.75.75,0,0,1-.577-.4A6.75,6.75,0,0,0,11.5,4.75Zm-.03,5.72a.75.75,0,0,1,1.06,0l3,3a.75.75,0,1,1-1.06,1.06l-1.72-1.72V19a.75.75,0,1,1-1.5,0V12.81L9.53,14.53a.75.75,0,0,1-1.06-1.06l3-3Z" transform="translate(5.753 4.752)" fill="#fff" fill-rule="evenodd"/>
      </g>
    </g>
  </g>
</svg>
