<svg xmlns="http://www.w3.org/2000/svg" width="23.565" height="20.619" viewBox="0 0 23.565 20.619">
  <path id="wallet" d="M17.674,42.31a1.473,1.473,0,1,0,1.473,1.473A1.473,1.473,0,0,0,17.674,42.31Zm3.682-7.364H20.62v-.736A2.209,2.209,0,0,0,18.41,32H4.419A4.418,4.418,0,0,0,0,36.418V48.2a4.418,4.418,0,0,0,4.419,4.418h16.2a2.945,2.945,0,0,0,2.946-2.946V37.155A2.209,2.209,0,0,0,21.356,34.946Zm.736,14.728a1.475,1.475,0,0,1-1.473,1.473H4.419A2.949,2.949,0,0,1,1.473,48.2V36.418a2.949,2.949,0,0,1,2.946-2.946H18.41a.737.737,0,0,1,.736.736v.736H5.155a.736.736,0,1,0,0,1.473h16.2a.737.737,0,0,1,.736.736Z" transform="translate(0 -32)" fill="#fd8f06"/>
</svg>
